<?xml version="1.0" encoding="UTF-8" standalone="no"?>
<!-- Created with Inkscape (http://www.inkscape.org/) -->

<svg
   xmlns:dc="http://purl.org/dc/elements/1.1/"
   xmlns:cc="http://creativecommons.org/ns#"
   xmlns:rdf="http://www.w3.org/1999/02/22-rdf-syntax-ns#"
   xmlns:svg="http://www.w3.org/2000/svg"
   xmlns="http://www.w3.org/2000/svg"
   xmlns:sodipodi="http://sodipodi.sourceforge.net/DTD/sodipodi-0.dtd"
   xmlns:inkscape="http://www.inkscape.org/namespaces/inkscape"
   width="270"
   height="90"
   id="svg5507"
   version="1.1"
   inkscape:version="0.48.4 r9939"
   sodipodi:docname="bbc_logo_part2.svg">
  <defs
     id="defs5509" />
  <sodipodi:namedview
     id="base"
     pagecolor="#ffffff"
     bordercolor="#666666"
     borderopacity="1.0"
     inkscape:pageopacity="0.0"
     inkscape:pageshadow="2"
     inkscape:zoom="1.979899"
     inkscape:cx="-30.015815"
     inkscape:cy="-45.817743"
     inkscape:document-units="px"
     inkscape:current-layer="layer7"
     showgrid="false"
     inkscape:window-width="1918"
     inkscape:window-height="1046"
     inkscape:window-x="0"
     inkscape:window-y="0"
     inkscape:window-maximized="0"
     inkscape:showpageshadow="false" />
  <metadata
     id="metadata5512">
    <rdf:RDF>
      <cc:Work
         rdf:about="">
        <dc:format>image/svg+xml</dc:format>
        <dc:type
           rdf:resource="http://purl.org/dc/dcmitype/StillImage" />
        <dc:title />
      </cc:Work>
    </rdf:RDF>
  </metadata>
  <g
     inkscape:label="background"
     inkscape:groupmode="layer"
     id="layer1"
     sodipodi:insensitive="true"
     transform="translate(0,-962.36218)">
    <rect
       style="fill:#ffde00;fill-opacity:1;stroke:none"
       id="rect4473"
       width="270"
       height="90"
       x="0"
       y="962.36218"
       rx="2.6644697"
       ry="0" />
  </g>
  <g
     inkscape:groupmode="layer"
     id="layer6"
     inkscape:label="belgium"
     sodipodi:insensitive="true"
     transform="translate(0,-962.36218)">
    <g
       id="layer1-6"
       inkscape:label="Layer 1"
       transform="matrix(0.11846801,0,0,0.11846801,105.82808,944.57253)"
       style="opacity:0.6;fill:#000000;fill-opacity:1">
      <path
         inkscape:connector-curvature="0"
         style="fill:#000000;fill-opacity:1;fill-rule:evenodd;stroke:none;display:inline"
         d="m 135.38237,312.80707 1.72001,-0.55988 2.43653,-1.25982 2.86627,-1.67974 3.01015,-1.5398 2.86648,-1.9597 1.00317,-0.69987 1.29001,0 1.00341,-0.55989 2.2931,-0.83988 2.43673,-1.25982 2.00666,-1.53975 1.86323,-0.97986 1.14651,-0.5599 2.14992,-0.97985 2.14996,-1.25982 2.15,-1.39978 1.71989,-1.53977 1.57654,-0.83988 2.57996,-1.67972 2.00645,-1.39977 2.15008,-1.25983 2.00642,-1.39979 1.86343,-1.39979 1.28989,-0.97985 0.86003,-0.97985 1.28993,-0.41989 1.2899,0 1.4332,-0.97985 1.57666,-0.97989 2.29327,-0.97984 4.15645,-2.51959 1.8634,-1.67972 1.57654,-0.83988 1.57658,-0.69992 1.57655,-1.53974 1.8633,-1.53976 1.00338,-0.55991 2.00641,-0.69992 1.57675,-0.97984 2.29314,-0.97985 1.86343,-0.4199 1.71981,-0.55995 1.57662,-0.69987 1.57659,-0.27997 0.57336,-0.5599 -0.14333,-0.97985 0.42983,-1.11981 0.71676,-0.83988 1.00321,0 1.00337,0.83988 0.86002,0.55989 1.00316,0.13997 2.14993,-0.41992 1.86335,-0.55991 2.63905,-0.56115 1.89121,-1.29293 1.60758,-0.5541 2.45851,-0.27702 2.17502,-1.01589 2.08047,-1.20055 0.94539,-0.6465 0.85109,1.38529 0.66193,1.29291 0,1.29292 0.18911,0.92353 0.56744,0.73882 0.6619,1.38526 -0.28368,0.73877 -0.66202,0.55414 -0.47275,0.92352 -0.85107,0.83116 -0.47274,0.55411 -0.47289,0.55409 -0.18905,0.36942 0.47273,0.73883 0.66195,0.73876 0.85107,0.83118 -0.0947,0.55409 -1.13468,0 -0.0944,0.73884 0,0.83117 0.47273,0.55409 0.85108,0 0.56749,0.46175 0,0.55409 -0.1893,0.5541 -0.37819,0.46176 0,0.73884 1.04013,0.83115 0.56732,0.5541 0.37824,0.64647 0.85112,0.46178 0.75662,0.64645 0.28368,0.55406 1.1346,0 0.4729,0 0.66183,0.73884 0.0946,1.1082 0.47281,0.73882 1.60754,0.5541 3.78232,0.18472 2.45862,-0.0923 4.4443,-0.64649 -0.47268,-4.43286 -0.18915,-3.50935 0.94576,-0.18469 0.5672,0.36942 0.4727,0.18468 0.85124,0 0.37831,-0.64643 0.2836,-0.92353 0.66191,0.46176 0.56724,0 0.37839,-1.01585 0.47276,-0.18473 0.56741,0.27708 0.75641,0.73878 0.47282,0.73882 0.6619,0 0.18923,-0.83116 0.189,-0.83118 -0.189,-0.9235 0.75645,-0.5541 0.66194,-0.27708 0.56729,0.36941 1.41841,0.55408 0.75653,0.46182 0.75662,0.83113 0.94551,0 0.2836,0.64648 0.66202,0.46177 0.66192,0 0.94579,-0.55411 1.13451,0 1.22919,0.55411 0.85129,1.01584 1.04006,0.36941 0.85091,0.36943 0.662,0.46174 1.04026,0.1847 0.56723,0.64647 1.66423,0.18611 1.03917,-0.27992 1.11072,0.5599 1.86331,0.34996 0.60911,0.10498 0.57325,0.83986 0.46576,0.69987 0.39418,0.31497 0.96753,-0.73489 0.82417,0.41992 1.14648,0.83989 0.2508,1.08481 -0.60153,1.06325 -0.0944,2.86288 0.0944,3.0476 0.75662,0.73878 1.13456,0.73882 1.13489,-0.36941 0.75645,0.46176 0.56728,0.27708 0.85109,-0.6465 1.32393,-0.46175 1.51299,-0.18468 0.75646,0.73882 1.13476,-0.3694 0.75646,-0.83119 0.75654,-0.55409 0.75637,-0.46175 0.85112,-0.0923 0.28364,0.55409 -0.18893,0.64644 -0.47289,0.27708 -0.56737,0.64643 -0.28364,0.73884 0.18894,0.5541 0.75653,0 1.98577,0.18471 1.04033,-0.18471 0.94551,-1.01585 0.0945,-1.38528 0.85108,-0.36941 0.75646,0.46174 0.47289,1.01586 1.22915,-0.83117 1.22939,-0.46175 1.13473,-0.83112 1.13476,-0.27708 0.85104,-0.64643 0.75646,-0.92357 0.94571,-0.73877 1.04002,-0.5541 0.75657,-0.64647 1.0401,-0.64646 1.13492,0.1847 1.32366,-0.46178 1.32394,0.73884 1.98564,-0.27706 12.67137,-9.14275 1.98572,-1.47762 5.86273,-7.84987 3.02597,-3.23229 -0.64151,-0.38178 -0.93583,-0.79207 -0.74859,-0.67024 -0.40548,-0.73111 -0.0937,-0.82254 -0.24952,-0.63975 2.12918,-0.11831 3.21501,-0.27707 2.553,0 3.97165,-0.18468 2.83676,0 0.47286,1.01585 0.66187,1.38527 1.41836,1.20058 1.98596,0.0923 0.94568,0.46176 1.98568,-0.0923 1.98573,-0.92351 1.89121,-0.64649 0.9456,-0.27703 -0.0946,-1.01588 -0.0945,-0.55412 0.37831,-0.64642 -0.85112,-1.38526 -0.94569,-1.20058 -1.13462,-1.47762 -1.04011,-1.10823 -0.75652,-1.20054 -0.85108,-1.10825 -0.28377,-1.29292 0.85115,-0.92351 0.47266,-1.01584 0.37846,-0.92352 -0.18921,-1.57 -0.56735,-0.36936 -0.94571,-0.0924 -0.75643,-0.64645 1.22928,-0.73882 1.70228,-0.83115 1.702,-0.64645 1.41841,-0.73882 1.98562,-1.10821 1.77665,-0.32889 2.14519,-1.11387 1.14066,-0.71604 0.51584,0.63648 1.0318,-0.71605 2.22685,0 2.44408,-0.50388 1.14049,0.42431 0.76038,0.79562 0.0544,0.92826 -0.62457,1.00778 -0.70624,1.19343 -0.57014,1.27301 -0.0543,0.76913 0.0814,1.53817 0.48891,1.85648 0.0271,1.35259 0.48881,0.66303 1.46643,-0.66303 1.41195,-0.74256 1.35794,-0.55695 3.25847,0.58344 3.09583,0.66304 2.36267,0.68954 1.56211,-0.52708 2.05814,-0.16077 0.24692,-1.24617 -0.41151,-1.56773 0.32914,-0.96472 1.89343,-1.00496 1.15252,-0.80398 0.86428,-1.32653 0.65858,-0.96479 1.15252,-0.88437 0.78201,-0.96469 0.61739,-0.84418 0.61743,-0.84419 0.65855,-0.56276 0.90542,-0.64316 0.57646,-0.68337 0.28809,-0.92457 0.61732,-0.48236 0.82313,-0.603 1.72869,-0.16077 0.53523,0 0.78197,0.56277 1.07009,0.0402 1.02906,0.32157 0.86439,0.3618 0.98793,0.84417 0.41143,0.80398 0.0822,0.76374 0.6998,0.56278 1.56431,0.201 0.20566,0.80393 -0.28817,1.28638 -0.4527,0.56275 0.24692,0.96478 0.41163,0.68336 -0.32915,0.48236 -0.78216,0.68337 -0.65867,0.56275 -0.0823,0.8442 -0.0823,0.40199 0.3293,1.6481 0.45282,1.56773 -0.0413,1.08539 -0.82308,0.0402 -1.11138,-0.68335 -1.35819,-0.402 -1.52302,-0.48238 -1.19379,-0.16081 -1.19349,0.0402 -0.53509,0.48234 -0.24688,0.84418 0.24688,0.92456 0.82326,1.08538 1.15236,0.80397 1.48184,0.16075 1.7698,-0.56276 2.34619,-0.0804 1.19371,-0.76378 0.24692,-0.56276 0.12352,0.48237 1.02896,0.5628 1.15244,0.40196 0.82318,0.36182 0.57618,-0.48241 0.94668,-0.48236 1.02902,-0.20101 1.19387,0.1206 0.78187,0.40196 0.69974,0.56282 0.74077,0.92452 0.45288,0.76376 0.53517,0.72357 0.32914,0.48241 0.98793,-0.12061 0.8233,-0.80396 0.61725,-0.48237 -0.78204,-0.76377 0.0413,-0.40199 0.41151,0.201 0.65854,0.1206 1.07014,-1.20598 1.19357,-1.48734 1.97582,-1.48732 1.93437,-1.5677 1.35838,-1.20597 0,-0.0402 0.41167,-1.08534 0.45264,-1.28638 0.1942,-1.01617 -0.10875,-0.63652 0.21745,-1.3791 0.43435,-1.06079 0.76027,-0.74261 0.59751,-1.21995 1.14046,-0.42437 0.38024,0.53044 0.32586,1.11388 0.59752,0.63648 0.27143,0.58345 1.52062,0.10608 2.66142,0.0531 0.65169,1.00779 0.48885,1.69731 0.7059,1.53825 0.81479,1.37908 0.92318,1.53824 -0.48881,0.63647 -0.10859,0.58349 -1.14057,1.48515 -0.65152,1.21998 -0.59764,1.64426 -0.76023,1.43217 -0.65176,0.90169 0.5974,0.74261 2.4984,2.49296 2.11807,2.81123 1.57498,2.12167 0.92317,1.48515 0.2175,1.53824 0.43441,1.53822 0,2.33381 0.48877,1.00778 1.52059,0.63654 1.90094,-0.10609 1.19493,-0.79563 1.30339,-0.47739 1.08632,-0.58345 1.19474,-0.10608 1.30338,0.053 0.86923,0.84869 0.76043,0.74261 1.08601,0.31824 0.70606,0.90171 0.32594,0.95477 -0.48883,1.00777 -0.48877,0.79563 -0.2716,1.16693 0.10869,1.00777 -0.48901,0.8487 -0.10851,0.84865 0,1.16692 0.76043,0.90171 1.03169,0.42435 0.9777,-0.74261 1.14059,-0.63646 1.41203,0 1.62942,0.68955 1.62934,0.53038 1.84647,-0.26521 3.36745,-0.37125 1.03183,-0.53046 0.3258,-0.68955 0.27164,-0.9017 1.3035,0.15915 1.5749,0.53039 1.57513,0.31824 1.62931,0.42437 1.62948,0.53041 1.24899,-0.053 1.24908,-1.32608 1.30352,-1.5382 0.97762,-1.0078 1.68357,-0.31824 0.92334,-0.21216 1.03196,-0.84869 0.43451,-1.06085 0.59736,-0.79562 0.48885,-0.21215 1.12417,0.51217 1.8434,0.1125 0.72962,0.60011 0.57612,1.08769 1.19057,1.2002 1.49776,1.50024 1.30564,1.20021 0.80635,0.75014 0.26899,2.10032 -0.46091,0.71265 -0.15356,0.93761 0,1.20023 0.69129,0.93764 0.0768,2.06284 0.76796,0.63762 1.38256,0.56259 1.49776,0.56258 0.9601,0.33755 2.15056,0.73229 2.07786,0.59388 1.97622,1.08875 1.46939,1.28674 0.15207,1.3362 1.92557,0.49492 1.16554,0.59388 1.31755,-0.69287 0.76019,0.54442 2.28018,-0.0495 1.26693,-0.49491 2.2803,-0.39593 0.91199,-0.29688 0.55762,0.1979 1.06403,0.49491 0.96291,0.34645 1.06405,0.84133 0.10133,1.18774 -0.75999,0.5939 -0.10128,0.54436 1.21607,0.69287 -0.45613,0.94029 0.10133,0.44543 0.3548,0.59388 1.21615,-0.19796 1.26697,-0.89082 1.36816,-0.4949 0.81074,0.34645 0.86155,-1.1383 0.70935,-0.099 1.01339,1.18777 1.01363,1.73215 1.52017,1.13824 -0.70935,0.74238 -0.81082,1.03928 -0.152,0.74236 -1.01355,0.19797 -1.01359,0.29689 -1.46958,1.43524 -0.40528,1.08874 -0.50667,0.69285 0.70927,1.03934 1.11503,0.39592 1.6215,0.14844 -0.15209,1.38572 -0.50674,0.98981 -0.76011,-0.0495 -0.65872,-0.49491 -0.70951,-0.14844 -0.70931,0.34642 -0.3548,0.29693 -0.65887,1.28674 0.20281,0.64336 0.30406,0.79183 0,0.84138 -0.55743,0.49483 0,0.89082 0.65883,0.84137 0,0.64338 -0.65883,0.39589 -0.91215,0 -0.86146,-0.49492 -0.76011,-0.14844 -0.55733,0.34641 -0.2029,0.98982 0.25346,1.13824 -0.75994,1.08881 -0.55747,1.28673 -0.60806,1.33623 1.36817,0.84128 1.11475,0.69288 -0.25324,0.54439 -0.70955,0.79183 -0.4054,1.58369 0.2026,1.18777 0.60814,0.79183 -1.21617,1.18777 -1.11463,1.3857 -0.6083,0.98977 -1.21604,0.98983 -0.20268,0.79184 -0.70942,0.69288 -0.91215,0.79179 -0.40543,0.98978 0.20271,0.79186 1.72285,-0.099 1.31755,-0.79182 0.81091,0 0.60803,0.69286 0.608,1.18779 -0.608,0.59386 -0.81095,0.099 -0.1012,1.18774 -0.60819,0.98978 -0.91203,0.79183 -0.50682,0.59391 -0.50676,1.18776 0,1.58369 -0.20265,1.08878 -0.81074,0.79179 -1.11486,-0.29696 -0.60812,-0.59382 -0.81067,0.39587 -0.30414,0.69287 -0.2026,1.48473 -0.30417,1.28672 -1.21615,0.5939 -0.50658,0.89083 -0.70955,1.08874 -0.81083,0 -0.81074,0 -0.70933,0.89081 -0.81089,0.49491 -0.30396,0.79182 -0.40559,0.98982 -0.20268,1.58369 -0.10128,1.08873 -0.30396,0.79184 0.60792,1.38572 0.81081,1.48472 0.50685,0.79184 0.10124,0.98977 0.40558,0.79183 1.21603,0.29695 0.81083,0.39591 1.01331,0.49491 0.4055,0.29696 0.81079,0 0.70945,0.49491 0.20262,0.98977 -0.3039,1.08873 -0.30401,0.5939 0.60791,1.08879 0.2028,0.98982 0.40525,1.18774 -0.50653,1.28676 -0.40542,0.59383 -0.91227,1.38573 -0.70937,0.89081 0.81077,0.49492 1.52029,-0.29696 1.01339,-0.19796 1.21557,-0.47404 0.79398,-0.25851 0.83825,0.60316 0.5733,0.43084 0.48536,0.25852 0.79408,-0.25852 0,-1.42174 0.57352,-1.12014 0.8822,-0.86168 1.23537,-0.99094 0.79383,-0.99089 0.92654,0.34465 0.17626,1.07706 0.26476,0.77554 0.66178,0.77548 1.10285,0.0862 0.44107,0.51703 0.61767,0.68934 0.79416,1.034 0.57333,0.21536 0.97064,-0.25848 1.6322,-1.03402 1.01467,-0.43082 0.52925,0.0862 0.35292,1.12019 0.35292,0.64624 1.36773,-1.37865 0.92626,-0.64629 1.54394,-0.73242 1.41162,0.3016 -0.15952,1.25252 0.30728,1.20013 0.69113,0.60013 1.07548,-0.45006 0.9216,-0.075 1.15214,0.60004 0.61443,-0.97515 1.53605,-0.22502 1.38266,-0.52508 1.38241,-0.6001 0.99855,-0.075 0.76806,0.52514 1.30584,0.97511 2.76499,0.15003 1.53597,-0.52506 0.99867,0.075 0.76782,0.82516 0.9988,1.05015 0.46062,0.67512 0,0.60008 -0.30702,0.60014 -0.38401,0.67508 0.0767,0.82515 0.15375,1.05019 0.38388,0.67511 0.38415,-0.9002 0.2304,-0.52505 0.9217,0 1.22874,0.75014 1.61311,0.22503 1.76667,0.14999 1.45927,-0.45003 1.45938,0 0.92166,0.30004 0.99848,0.52509 -0.0768,0.90014 0.15352,1.05019 0.46091,1.20017 0.76807,1.12518 1.3057,1.27525 0,1.35021 0.76804,0.90016 1.4593,1.12519 0.69131,1.20016 0.46089,0.9752 0.69131,0.52509 0.61452,0.75011 0.53757,0.97516 -0.38405,0.67511 -0.61459,0.52509 -0.61435,0.15004 0.84499,1.05019 0.38395,0.97515 0.0767,0.97514 0.30735,0.52509 1.07533,-0.52509 0.53749,-0.90015 1.76666,0.30011 1.84341,0 1.45934,0.60004 0.76812,0.67513 1.53604,-0.15004 1.07536,-0.75011 1.76659,0.3001 -0.0769,0.8251 -0.4607,0.97514 -0.845,1.20022 -0.76803,0.67509 -0.53765,0.60014 -0.53757,0.67512 0,1.50024 -0.69131,1.05013 -1.53629,0 -0.9216,0.075 -0.1535,1.1252 -0.92176,0.97513 -0.99851,0.97522 -0.46091,0.75011 -0.0767,0.97514 -1.07532,0 -0.768,0 -0.0768,0.82515 -0.38409,0.22505 -0.69133,0.45008 -0.0767,0.82511 0.38403,0.37508 0.15354,0.75011 0,0.90019 0.15364,0.30004 0.99864,0.14999 0.30709,0.60013 0.69127,0.67509 -0.38401,0.82515 -0.53765,0.5251 0.0767,0.67513 0.30739,0.45007 1.22882,0 0.69129,0.30005 0.30723,0.52506 0.15376,0.37504 0.46075,0.82519 0.38397,0.82511 0.53781,0.67513 0.3071,0.9001 0.15364,0.82519 0.46091,0.37508 0.61439,-0.60013 0.9217,-0.82511 1.30576,-0.2251 0.30723,-0.29993 0.99852,0.67505 1.07525,-0.30009 0.69134,-0.37496 0.84479,0 0.69121,0.52503 0.9217,0.37503 1.61307,-0.15006 1.15208,-0.15002 0.61433,0.5251 0.99864,0.67509 1.3056,0.22509 1.92025,0.52503 -0.4609,0.6752 -0.7679,1.27518 0.0766,0.82511 0.54274,1.13114 -0.17646,0.9048 -0.1763,0.51695 0.83801,0.56005 1.27934,0.51704 1.41167,0.30166 0.75003,0.21542 0.441,0.81837 0.0882,1.07721 0.0442,1.55099 0,1.16332 -0.61751,0.6462 -0.61773,0.81857 0,0.68945 0.44111,0.90472 0.13246,0.81857 -0.17658,0.81853 -0.57354,1.29251 -0.57321,1.03404 -0.30889,0.81857 -0.39716,0.56001 -0.92626,0.64628 -0.39715,0.56005 0.1765,0.64635 0.79407,0.60315 1.05889,1.12014 1.05854,1.12022 0.22066,1.24939 1.05866,0.38772 1.23527,0.86158 1.45569,0.73246 0.7501,1.03396 0.3087,1.24942 0.0882,0.77572 0.0882,1.68015 -1.5881,0.38776 -1.32343,0.51704 -1.14691,0.86166 -0.83809,0.43061 -0.88241,0.0863 0.0442,0.94777 -0.83813,-0.517 -1.36757,-0.73246 -0.70593,-0.73247 -0.79395,-0.55993 -0.52946,-0.38772 -0.61762,0.51692 -1.36743,0.0863 -0.57362,0.21518 -0.0881,0.68957 -0.0441,0.99087 -0.30897,0.56021 -0.83811,0.21518 -0.13231,1.03404 -0.66178,0.47399 -0.13229,0.86158 -0.44109,0.34478 0.1322,1.16328 -0.39695,0.7323 0.26475,0.47383 0.66163,0.81881 -0.30867,0.64604 -0.66179,0.47394 -0.79417,0.94785 -0.57334,0.517 -1.54391,-0.043 -0.88255,0 -0.74982,0.51707 -1.89689,0.60303 -1.05867,0.38788 -0.66187,0.38767 -0.74992,0.25848 -0.61753,0.43074 -0.39714,0.56021 -0.39692,0.90455 -0.70578,0.90492 -0.35292,0.64636 -0.75,0.73234 -0.39704,0.64616 -1.23524,0.34462 -0.44114,0.25856 -0.30878,0.81857 -0.30889,0.517 0.22084,0.73255 0.92622,0.8184 0.74996,1.16328 0.5294,0.517 0,0.77547 -0.26463,0.64632 0.1765,0.94785 0.1321,0.86171 0.0884,1.42163 -0.66178,1.03408 -0.61764,-0.3876 -0.97049,0.0429 -0.57354,0.56005 -0.35284,0.47399 -0.44114,0.47414 -0.44117,-0.0863 -0.74994,-0.81869 -0.39693,-0.0432 -0.397,0.47399 0.35284,0.7325 -0.70584,0.51692 0.57349,0.94781 0.17651,0.7325 c 0,0 -0.48545,0.94785 -0.66179,0.94785 -0.17646,0 -1.01465,0 -1.01465,0 l 0.0441,0.47391 0.52946,0.34462 0.26462,0.30166 1.19113,0 0.35276,0.86158 0,0.94781 -0.0881,0.68941 -0.92646,0.51696 -0.75,0.60322 -0.44105,0.17229 -0.74989,-0.25851 -0.70587,-0.64628 -0.794,-0.43085 -0.17665,-0.6893 0.48525,-0.81868 0.52961,-0.56006 -0.0884,-0.43073 -0.44123,-0.68933 -0.30862,-0.6462 0.35284,-0.7325 -0.22056,-0.47382 -0.83817,-0.60327 -1.01463,-0.56009 -1.27941,-0.17221 -1.19097,-0.17229 -0.79403,0.3445 -0.17658,1.42179 -0.17626,1.03392 -1.01468,0.43105 -1.19114,0.34467 -0.97053,-0.17258 -0.70594,-0.38767 -0.9263,-0.73247 -1.23524,-0.51692 -0.22056,-1.37874 -0.39713,-1.3785 -0.22056,-0.86182 -0.57334,-0.0431 -0.57362,0.4309 -1.14689,0.47398 -1.19104,0.043 -2.86751,0.21539 -0.57349,0.47399 -1.05863,0.51695 -0.13241,0.77552 0,1.1632 0.13241,0.4739 0.26459,0.51716 -0.13234,0.64608 -0.2205,0.17229 -0.3972,0.73242 0.22078,1.03416 -0.13245,0.86166 -0.39699,0.51692 0.6617,0.47395 -0.13226,0.90475 -1.3235,0.12928 -0.79403,0.21535 -1.41155,0.38788 -0.88251,0.43073 -0.8822,0.30161 -0.83825,0.38776 -0.57338,0.517 -1.19105,0.47394 -0.74992,0.99099 -0.13241,0.68929 -0.22054,1.68023 -0.35295,0.99078 -0.0882,1.68032 -0.35293,1.55107 -1.6763,0.94785 -0.75003,0.56009 -0.83815,0.81849 -0.70581,1.55091 0.70581,1.16336 0.88236,0.64628 0.35276,0.77548 -0.22039,0.81857 -0.75005,0.77547 -0.35293,0.47395 -0.17647,0.99094 -0.52931,1.034 -0.5294,1.20636 -1.41159,0.60315 -0.97055,0.47391 -1.49995,0.73242 0.0883,0.68937 0.66175,1.98189 0.79406,0.77547 0.70591,0.60299 0.22055,0.51708 -0.0441,1.63722 -0.83828,0.86158 -1.01467,0.43093 -1.10271,0.51696 -0.13254,1.07705 -0.52916,0.73242 -0.70586,-0.21534 -0.75008,-0.21539 -0.7941,0.12924 -0.57338,0.43081 -1.01467,0.17225 -0.13232,0.43085 -0.44118,0.56022 -0.13227,0.86166 -0.30882,0.81849 0.1765,0.60314 0.17626,0.99099 -0.39691,0.68937 -0.35305,0.99082 -0.57334,0.60323 0.0883,0.90475 0,0.86155 -0.13231,0.73266 -0.75008,0.77524 -0.61746,0.0432 -0.48536,0.60306 -0.17642,0.43106 -0.61771,0.38756 -0.30856,0.38779 -0.17662,0.64628 0,0.7756 0.97045,0.47378 0.75016,0.47383 0.9704,0.17253 1.14699,0.56001 1.63885,0.62678 0.46569,1.0801 -0.17465,0.73896 -0.46558,0.73905 -1.04779,-0.17045 -1.28055,0 -0.9314,0.39791 0.11641,0.85268 0.29101,0.7959 0.23289,0.68219 -0.34924,0.56859 -0.40758,0.39787 0.0583,0.8528 0,0.56844 0,1.02328 -0.98969,0.62529 -0.3492,0.73909 0.29114,0.73912 0.23274,0.51158 0.0582,1.0801 0.52406,1.59172 0,1.64866 0.2328,1.0232 0.46559,0.96659 0.29115,0.79577 0.52369,0.34102 1.04783,-0.5115 1.33885,0 1.28061,-0.62529 0.69843,0.85267 0.17458,1.36438 0.98969,0.90957 0.75679,1.25075 0.11631,1.02324 1.16423,1.3643 0.11627,0.85271 0.93157,1.02333 1.22229,1.02324 -0.0583,0.79586 -0.29101,0.45476 0,1.47805 -0.17446,1.42119 0.5821,0.22755 0.52374,0.11371 0.58216,0.56836 0.69848,0.22742 0.75695,-0.68199 1.16411,-0.28432 0.87309,0.0568 0.81492,0.96643 0.93142,1.36417 0.582,0.73917 -0.11639,0.68223 -0.98971,1.19385 -0.93134,1.02316 -0.40735,0.68227 -0.34936,0.85271 0.1747,1.19385 0.75675,1.19386 1.45516,0.34109 1.04792,0.79578 1.74623,0.45496 1.39692,0.62526 -0.11628,0.56851 -0.58216,0.3411 -0.17474,0.56848 -0.11639,1.08014 0.11639,1.08009 0.46571,0.90962 -0.23278,0.79601 -0.69856,0.68195 -1.10587,-0.73884 -0.52401,0.56832 -0.46576,0.56847 0.40763,0.68211 -0.52394,0.62558 -0.40734,0.45472 -0.46572,0.56844 -0.29118,0.45484 0.4658,0.73905 0.0581,0.68223 -0.52393,0.68223 -0.87308,0.28415 -0.64023,0.45473 -0.52394,0.62537 -0.69856,0.28424 -0.64017,0.79594 0.11636,0.90953 0.64035,0.62518 0.52386,0.62545 0.98945,-0.45477 0.64032,-0.34097 0.46564,0.17029 0,0.73908 -0.40732,0.45489 -0.29107,0.057 0.58208,0.85264 -0.23286,0.28424 -0.40752,0.28424 -0.64017,0.56839 -0.58209,0.73913 -0.98965,0.51174 -0.69848,0.51154 -0.34935,0.56864 0.81499,0.68199 -0.81499,0.51166 -1.57137,0.51178 -0.6988,0.11367 -0.58195,0.68191 -0.75671,0 -1.28067,-0.51146 -1.28052,-0.0569 -0.81494,-0.739 -0.87299,-0.56848 -0.6987,-0.90965 -0.815,-0.28416 -1.16405,0.56864 -0.75677,0.79574 0,1.08026 -0.17454,1.25054 -0.52402,0.85272 -0.52386,0.34109 -1.10614,-0.11359 -0.58186,-0.90957 -0.64033,0.11351 -0.8731,0.45489 -0.40759,0.51166 -1.106,0 -1.33862,-0.0569 -0.81511,-0.56856 -0.7567,-0.56831 -0.81505,-0.17065 -0.6982,-0.2273 -0.52409,-0.28452 -0.87311,-0.34082 -0.93121,-0.28419 -1.04783,0.22726 -1.33877,0.34105 -0.46583,0.79594 -0.69833,0.45461 -0.29124,0.5688 -0.69839,0.739 -0.40745,0.56836 -0.52397,0.62545 -0.17462,0.62529 0.11647,0.8526 0.34924,0.68231 -0.40744,1.08014 -0.17466,0.85275 -0.93131,0.79582 -0.87331,-0.34105 -0.058,-0.96655 -0.75671,-1.19389 -0.81493,-0.51162 -1.16421,-0.17041 -0.75676,-0.39791 -1.22234,-0.17052 -1.1061,-0.398 -0.98946,0 -0.52394,0.51171 -0.17457,0.90953 -0.64021,0.68223 -0.4658,0.56835 -0.64017,0.28424 -1.28076,0.68223 -1.04764,0.62541 -1.92078,0 -2.2121,0.11363 -0.3492,0.68219 -0.46575,0.45488 -0.64026,0.51154 -1.16407,-0.39791 -0.11673,-1.81913 -0.69835,-0.17061 -0.75661,-0.62537 -0.46597,-0.73897 1.10618,-0.7959 0.93148,-0.85279 0.058,-1.3074 -0.17474,-1.08014 -0.69835,-0.96639 -1.106,-0.5119 -0.69837,-0.96627 -0.40762,-0.34113 1.16411,-0.90957 0.46557,-1.19377 0.0586,-0.7959 -0.87337,-0.11384 -1.28052,-0.28395 -0.46567,-0.96655 0,-1.08018 -0.58215,-1.0232 0,-1.08014 -0.52386,-1.19385 -0.6984,-0.68219 -0.98965,-0.90965 -0.93132,-0.73909 -1.10605,-1.19385 -0.87305,-0.85267 -1.16411,-0.11363 -0.75683,-0.56852 -1.28054,-0.45477 -1.39704,-0.51166 -1.51339,-0.85263 -0.34916,0.17048 -0.3494,0.7959 -0.0582,0.90966 -0.75693,1.08001 -1.2804,0.11372 -0.9314,0.28411 -0.64014,0.56868 -0.29117,-0.90965 -0.64017,-1.02324 -0.11649,-1.47813 0.17462,-0.96655 0.58204,-1.19369 0.64033,-1.02332 0.87318,-0.73889 0.8731,-0.62553 -0.34928,-0.90945 -0.75674,-1.08022 -1.10601,-1.13692 -0.81475,-0.68226 -0.98967,-0.56844 -0.93126,-0.68223 -0.58233,-0.73888 -0.81487,-0.6255 -0.29101,-0.90961 -0.69848,-0.79574 -1.04768,-0.62541 -1.04795,0.0568 -0.75659,0.56856 -0.23294,0.45477 -0.4656,0.39779 -0.98955,0.28444 -0.23286,-0.68223 -1.28074,0.0568 -0.93105,0.11359 -0.40771,0.28436 -0.69847,-0.22746 -0.81483,-0.68203 -0.87322,-0.0569 -0.75675,0 -1.10576,0 -1.51355,0 -1.33883,0 -0.69864,-0.96643 0.40751,-0.85272 0.17474,-1.30748 -0.40755,-0.96659 -0.75668,-0.68194 -0.58213,-0.17061 -0.46559,0.62517 -0.34932,0.85292 -0.75671,0.28415 -0.64032,-0.73908 -1.04784,0.0569 -0.64021,-0.85264 -0.0582,-0.56876 0.23289,-0.73888 -0.29118,-0.85284 -0.34927,-1.13695 -0.23272,-0.62517 -0.64025,-1.19377 -0.81507,-1.19389 -0.58194,-0.79586 -0.23308,-0.68215 -0.64025,-0.68239 -0.40729,-0.45473 -0.69859,-0.62537 -0.29107,0 -0.46579,0.68223 -1.68789,0.0569 -1.0478,-0.22738 -0.29117,-0.56844 -1.28057,-0.51174 -1.22245,-0.28428 -0.87298,-0.56847 -1.28058,-0.5684 -1.04776,-0.34125 -0.81503,-0.62526 -0.81499,-1.13707 -0.6402,-1.30732 -0.52389,-0.79582 -0.40741,-0.6255 -1.57169,-0.0567 -1.5134,0 -0.69856,0.62513 -1.0478,0 -0.46563,-0.68199 -0.58219,0.39787 -0.23277,0.73901 -0.52375,0.73908 -0.8732,0.22726 -1.22236,0.39815 -1.16429,0 -1.22249,0.73893 -1.74606,-0.34106 -0.58233,-0.34109 -1.39691,-0.56856 -1.33877,-0.0568 -0.98953,0.5117 -1.04773,-0.11383 -0.1747,-0.62518 0.58209,-0.85287 0.40745,-0.73905 0.29115,-1.13691 0.23282,-1.19377 1.28052,-0.90969 -0.58207,-0.73909 -0.34936,-1.13695 -0.29091,-1.19385 0.46568,-0.85268 -0.58202,-0.7959 -0.93141,-0.28428 -0.58228,-1.02316 -0.5819,-1.0803 -0.0582,-1.47801 0.5239,-0.62537 0.64037,-0.68211 1.4551,-2.38762 0.34924,-1.81926 0.98965,-0.96627 0.58201,-0.96647 0,-0.62549 -0.52378,-0.39791 0.64021,-0.73904 0.34928,-0.56852 -0.40743,-0.39759 -0.34935,-0.79618 -0.29094,-0.85272 -0.58224,-0.90957 -1.28046,-1.02332 -0.98954,-0.56848 -0.69871,-0.96635 -0.23273,-1.08013 -0.17458,-0.73905 -0.81499,-0.79598 -0.58204,0 -0.93127,0.39803 -0.64033,-0.34109 -0.87318,-0.0569 -1.16405,-0.68215 -0.87328,-0.0568 -1.04767,-0.45477 -1.04784,-0.51162 0,-1.25075 0.69848,-1.25062 -0.23285,-1.70547 1.28057,-0.56848 0.93134,-0.90977 0.69856,-0.85264 0.40754,-0.79586 -0.69863,-0.73916 0.40752,-0.73893 0.17458,-2.84254 0.17466,-1.36442 0.52374,-0.90933 0.81505,-0.56852 0.52392,-0.68231 0.81493,-0.62521 0.40752,-0.5686 -0.81515,-0.96643 -0.98945,-0.39803 -0.29097,-1.42115 -0.75674,-0.85268 -0.34916,-0.39802 0.75662,-0.79587 1.45524,-0.56831 0.6403,-0.62537 0.23276,-1.25071 0.0582,-1.70551 -0.40727,-0.73905 -0.1747,-0.62537 0.58197,-0.56844 0.8733,-0.62533 0.75668,-0.11363 0.17458,0.5684 0.46579,0.51182 0.40739,0.68207 0.4075,0.39795 0.46563,0.11363 0.34916,-1.08006 -0.58196,-0.8528 0,-0.79582 0.58196,-1.7622 -0.64013,-0.73921 -0.11653,-0.79582 0.1747,-0.96651 0.8731,-0.85267 1.04771,-0.90965 1.45527,-0.34106 -0.11642,-1.08018 -1.22245,-0.17052 -0.64022,-0.22731 -0.46567,-1.19385 0.0582,-0.96642 -1.28064,-0.22735 -1.16415,0 -1.51343,0.0566 -0.81497,0.11391 -1.10597,-0.51162 -0.58212,-0.39791 -0.46563,-0.51186 -0.46564,-0.85264 -0.7569,0.90965 -0.81487,0.9095 -0.93121,0.62545 -0.87317,0.73884 -0.40749,0.2844 -0.69856,0.68215 -1.28048,0.56848 -1.45532,0.39791 -0.46547,0.6821 -0.46594,0.79595 -0.17466,0.62545 -0.29097,1.02324 -0.46571,0.56844 0.1747,1.36442 -0.58205,0.68214 -1.33881,0.17057 -0.75678,0.56856 -1.22254,0.62533 -0.69846,0.5115 -0.64019,0.51166 -0.93138,0.62558 -1.10598,0.79582 -0.75653,1.64849 -0.1747,0.68223 -0.34948,0.96647 -0.582,0.68211 -0.29093,0.90973 0.52369,1.13667 0.46576,0.62546 0.81503,0.22738 0.64021,0.68231 -0.17462,0.62517 -0.34934,0.3413 -0.0581,1.59152 -0.46555,0.90989 -0.29115,0.51158 -0.58227,1.02332 0,1.02316 -0.11625,1.02341 0.23277,2.16019 0.40754,1.19381 0.0582,1.02333 -1.28054,0.0567 -1.68821,-0.0567 -1.04764,0.51154 -1.45518,0.22742 -1.04788,0.3411 -1.28082,0.17048 -1.04764,0.56856 -2.85208,0.11379 -1.68815,0.17045 -0.93122,0.51162 -0.64041,0.90957 -0.98967,0.90966 -1.10585,0.6821 -1.39703,0.17053 -1.2225,0.34114 -1.22229,1.53498 -0.69844,1.08006 -0.75685,0.85271 -2.09547,0.45481 -2.85232,0.0568 -1.33869,0.51163 -1.33891,0.62533 -1.22234,0.68235 -1.10592,-0.057 -1.10606,-0.56856 -1.2224,-0.28407 -0.64023,-0.45489 -1.04792,-0.51158 -0.87304,-0.11371 -1.92081,0 -0.87322,-0.45461 -1.10598,-0.11395 -3.08521,0 -0.87301,-0.7957 -0.87318,-0.85284 -0.58211,-0.45476 -0.81491,-0.51154 -1.39687,-0.057 -0.93149,-0.73896 -1.16419,0.17053 -1.57161,0.62545 -1.51339,0.0567 -2.96873,0.22727 -1.62978,0.45488 -1.04776,0.45481 -1.04788,0.11371 -1.28038,0 -1.16433,0.0568 -1.45524,0.45492 -0.23297,-1.25078 -0.29097,-0.90958 -0.98961,-0.7959 -1.10583,-0.51162 -0.7568,-0.51162 -0.69852,-0.28428 -1.68789,0.22734 -0.8733,0.0569 -0.64023,-0.68223 1.0478,-1.19377 1.04768,-1.08018 0.58212,-0.85275 0.1747,-0.85268 -0.98961,-0.45477 -1.10602,-0.1706 -0.69856,-1.02321 -0.69848,-0.62549 -0.23282,-1.30744 0.46567,-1.5349 0.75684,-1.59188 0.75647,-1.02317 0.58232,-1.36433 0.64025,-0.68207 0.87306,0 0.87314,0.4546 0.64041,-0.11367 1.10584,-0.51166 1.22234,-0.51166 0.23297,-0.96647 1.33873,-0.34109 0.64045,-0.39775 1.10598,-0.62546 0.87298,-0.51166 0.23278,-0.68211 0,-0.90961 -0.5819,-1.02328 -0.11655,-0.73917 -0.58213,-0.7388 -0.58204,-1.08026 -0.1164,-0.5117 -0.81487,-0.56844 -0.93148,-0.68211 -0.1745,-0.62537 -0.64025,-0.7959 0.2328,-0.85259 0.58195,-0.45505 -0.0581,-1.36422 0,-0.90957 -0.46561,-0.7392 0.46561,-0.62534 -0.81489,-0.56839 -1.92091,-0.0569 -0.52386,0.62529 -0.69856,-0.0568 -0.5239,-0.62546 -0.87306,0 -0.58216,0.68223 -0.29101,0.56864 -1.28053,0 -1.04785,-0.39799 -0.87318,-0.39787 -0.23273,-0.68235 0.58205,-0.62525 0.46571,-1.42111 0.40752,-1.02333 1.28049,-1.02336 0.52394,-0.56844 0.0581,-1.13707 -0.0581,-0.8528 -0.29114,-0.56831 -0.34924,-0.39803 0.40757,-0.6253 0.11633,-0.22738 0.58207,-1.30768 0.34928,-0.90949 -0.11652,-2.44444 -0.81483,-0.739 0.17458,-1.19397 1.28059,-0.45473 0.98965,-0.45477 0.46561,-0.79593 0.58218,-1.08014 0.46544,-1.02325 0.52405,-0.56855 0.93145,-0.73881 1.22237,-0.62549 1.10597,-0.62541 0.6984,-0.56848 0.64035,-0.62525 0.0582,-1.02321 -0.46567,-1.19389 -0.40746,-0.73916 -0.64034,-0.79582 -0.87305,-1.02324 -0.46571,-0.11359 -1.28077,0 -1.16415,-0.17061 -0.46555,-0.51178 0,-0.79566 -0.64037,-0.45497 -0.69852,-0.5684 -0.52382,0.28428 -0.75678,0.28412 -0.58211,0.7961 -0.11633,0.45453 -0.40745,0.56855 0.40745,0.73909 1.39692,0.0568 0.52397,0.73897 0,0.79598 -0.29097,1.0232 -0.93148,0.45497 -1.10589,0 -1.16425,0 -0.58202,-0.96667 -0.17466,-1.13679 -0.23281,-1.25075 -0.58206,-0.39775 -0.52394,-0.45505 0.3492,-1.19381 -0.17454,-1.19373 -0.29119,-1.19389 -0.17446,-0.51158 -0.46579,-0.5686 -0.69848,-0.39799 -0.69836,-0.73892 -0.46583,-0.68215 -0.87294,-0.39795 -1.22249,0 -0.75674,0 -0.34928,-0.90965 -0.1166,-0.62537 -0.64013,-0.51162 -0.81484,-0.68219 -0.40766,-0.73901 -0.81491,-0.51166 -0.46552,-0.45472 -0.40754,-0.73925 -0.23284,-0.39791 -0.93135,-0.28396 -0.6403,-0.85283 -0.58212,-0.56856 -0.1164,-0.62545 -0.17465,-0.68195 0,-0.56868 -0.46564,-0.34097 -0.52386,0.45468 -0.93135,0.96651 -0.69856,0.45476 -0.98954,0 -1.39699,0.62542 -0.87317,0.62529 -1.16424,-0.51178 -1.04755,-0.17029 -0.46584,-0.62537 -0.8731,0.2842 -1.51363,1.19381 -1.51327,1.02308 -0.93136,0.22762 -0.81491,0.51163 -1.16424,0.34121 -1.22229,0.85252 -1.04771,0.057 -0.64046,-0.11375 -0.11628,-0.90965 0.0581,-0.90945 -0.81476,-0.39795 -1.28075,-0.0571 -1.04775,-0.5115 -0.64026,-0.5117 -0.81492,-1.07998 -0.81495,-0.51162 -1.68805,-0.22738 -1.57166,0.4546 -0.75677,0.79602 -0.6984,-0.11379 -0.40762,-1.42111 -0.93123,0.51166 -1.28055,0.11359 -1.33878,-0.34097 -1.33885,0.34097 -1.04792,0 -0.52377,0.62553 -0.9314,-0.17077 -0.5239,-0.45476 -0.64033,0.39803 -0.69852,0.62537 -0.34912,0.56828 -0.0582,0.96659 -0.0582,0.51162 -0.40753,0.56848 -0.11656,0.62533 -0.11628,1.08006 -0.0583,1.47817 0,1.13695 -0.69844,-0.17053 -0.75678,-0.56859 -0.75657,-0.62526 -0.52402,0.39811 0.64022,0.68199 c 0,0 0.58215,0.73913 0.34944,0.73913 -0.23284,0 -0.29094,0.7959 -0.29094,0.7959 l -1.048,-0.34122 -0.4656,-0.79582 -1.33889,-1.30756 -0.2911,-0.68211 -0.93135,-1.13699 -0.58188,-0.90966 -0.29118,-0.79577 0,-0.73929 0,-0.79574 -0.40741,-0.45484 -0.98954,-0.51147 0,-1.13707 0.40762,-0.8528 -0.17478,-0.96642 -0.69864,-1.08014 -0.23276,-0.56836 0,-1.13711 0.64042,-0.6253 0.81484,-0.96635 0.69847,-0.90961 0.1166,-4.60487 -0.81507,-1.42123 0.11643,-1.13688 0,-1.19389 -0.0582,-1.13707 -0.58208,-1.08002 -0.87322,-0.79578 0.23296,-1.08018 0.58192,-0.45484 0,-0.51163 -0.69844,-0.85271 -0.87301,-0.73905 -0.98978,0 -0.81467,-0.73908 -0.46588,-0.85264 -0.29094,-0.73912 -0.40746,-0.73897 -0.11648,-0.73904 -0.87309,-0.73904 -0.69848,-0.90966 -0.64022,-0.68202 -0.81507,-0.56864 -0.81492,0.28432 -0.98961,0.85263 -1.10594,0 -0.75669,-0.73888 -0.40758,-0.5686 -0.93136,-0.5684 -1.10581,0 -0.93124,0.68207 -1.10605,0 -2.15393,0.11375 -1.28051,0.56852 -0.98954,0.73909 -1.04775,0 -0.5239,-0.68235 0.34912,-1.1368 0.11656,-1.13707 1.10597,-0.85275 1.0478,-1.13684 0.23276,-1.08018 -0.17462,-0.90957 -0.815,-0.68223 -0.98945,-0.56848 -0.52402,0 -0.58192,0.45481 -1.22237,-0.28428 -0.75666,-0.62533 -0.75681,-0.17053 -0.46568,0.45481 -0.58208,0.4548 -0.1747,0.39791 -0.58199,0.68219 -0.58204,0.56848 -0.29118,0.62533 -0.17474,0.96643 -0.29086,0.68207 -0.98957,0.11379 -1.22238,0.0568 -0.58223,0.51178 -1.62964,0.56831 -1.33877,0.45489 -0.98961,0.22738 -1.3972,0.45481 -0.75661,0.51162 -0.64026,0.39783 -0.58216,-0.0567 -0.40753,-0.85271 -0.75674,-0.62546 -0.23276,-0.68206 -0.98961,-0.39787 -0.75662,-0.45493 -1.45533,0 -1.164,-0.79578 -0.69867,-1.08018 -0.64022,-0.68215 -1.28063,-0.11371 -0.9895,-0.4548 -0.87309,-0.45477 -0.64034,-1.08014 -0.46584,-0.96643 -0.69835,-1.08013 0.0583,-1.36434 0.46547,-1.30756 -0.46547,-1.02325 0.29089,-0.62541 -0.64029,-0.96643 0.75677,-1.53494 -0.11648,-1.08006 -0.52389,-1.19381 0,-1.36438 0.0581,-1.30756 -0.29078,-0.68219 -0.29114,-1.13695 -0.4075,-0.90961 -0.87321,-0.85272 -0.58196,-1.02328 -0.0583,-1.87596 -0.46572,-0.56852 -0.81471,-0.79593 0.058,-1.36437 0.11653,-1.1938 -0.5822,-1.19384 -0.23276,-1.70546 0.81496,-1.3075 1.28067,-0.62536 0.93131,-0.39795 -0.40766,-0.73906 -0.58195,-1.0801 0.29102,-1.13697 0.3492,-0.73906 c 0,0 -0.2328,-0.96642 -0.40734,-1.1938 -0.17458,-0.22742 -0.9314,-0.96644 -0.9314,-0.96644 l -0.29106,-0.62535 -0.69843,-0.51165 -1.97911,0.11374 -1.10606,0 -0.98957,-0.56853 -0.9895,-1.19378 -0.81499,-0.39794 -0.87322,-1.02331 0.6986,-0.73902 0.46564,-0.6822 -0.87314,-0.9096 -0.69848,-0.68216 -0.23284,-1.08014 -0.46571,-0.90955 -0.98934,-0.96643 -1.04787,-0.73906 -0.69864,-1.30754 0.40754,-0.73903 -0.46572,-0.85272 -0.69847,-1.19381 -0.52394,-1.42125 -0.98954,-0.17058 -1.45521,0.22744 -1.10602,-0.62534 -1.39699,-0.90956 -0.75653,0.73897 0,1.30755 -0.46584,0.62531 -0.93132,0.45484 -0.46559,0.85271 -0.75682,0.51167 -1.22229,-0.62532 -1.10606,-0.85277 -1.51335,-0.45477 -0.87325,0.73905 -0.87306,0.3979 -0.69218,0.65505 -1.22651,0 -1.14458,-0.39926 -0.8176,0.47913 -0.81769,1.11792 -0.98107,0.4791 -0.9812,0.79851 -1.14462,0.63877 -0.73589,0.79855 -0.8994,0.63877 -0.7358,-0.55892 -0.65401,-0.15973 -0.98112,0 -0.73597,0.63881 -0.98111,0.87838 -0.16335,0.79847 0.40862,0.87836 0,0.87838 -0.98116,0.39927 -0.24523,0.4791 -0.3269,0.55895 0.3269,1.19776 -0.57237,1.75676 -1.22642,1.038 -1.14459,0.31937 -0.57229,1.35747 -1.06307,-0.0798 -0.4087,-0.55891 -0.65417,-0.87839 -1.71693,-0.39925 -1.22634,-0.87839 -0.98119,-0.95817 -0.65417,-0.95825 -0.98116,-0.71859 -0.73576,0.0798 -1.22643,0.47909 -1.47165,0.55892 -0.81764,-0.15966 -0.89948,-1.27764 -0.98099,-0.23955 -0.89944,-1.03805 -0.65397,-1.03805 -0.16368,-1.597 -0.24526,-1.35746 -0.98132,-0.79856 -0.98091,-0.47909 -0.40874,-1.35746 -0.57242,-0.95822 0.32707,-0.95817 -1.38998,-1.11792 -0.65405,-0.71863 -0.65417,-0.63884 -0.65417,-0.31941 -0.98099,-1.11792 -0.24527,-1.1179 -0.0818,-1.11787 0.16359,-1.35749 -0.57233,-0.79852 -1.14467,-0.47909 -2.86175,0 -1.06283,0 -0.49065,-0.39925 -0.65397,-0.79852 -0.40886,-0.23953 -0.81785,0.71863 -0.65377,0.47912 -0.81772,0.55892 -1.14451,0 -1.39021,-0.79847 -0.16344,-1.19775 0,-0.95823 -0.3271,-1.19778 -0.65405,-0.87834 -0.57225,-1.35743 -0.40878,-0.95824 -1.14475,-0.0799 -0.81768,-0.31942 0.3271,-1.03803 1.30826,-1.11793 0.16343,-0.71863 -0.57205,-1.11794 0,-1.43733 0,-1.83655 0,-1.27758 0,-1.59702 0.0815,-1.59702 -0.32699,-1.03808 -1.30814,-0.0798 -0.16363,-0.79853 2.5346,-2.31566 1.22643,-1.67685 1.30822,-0.95823 -0.16344,-0.95821 -0.4907,-1.35747 -0.24514,-1.03806 -0.73601,-1.03807 -0.73589,-1.03809 -0.40878,-1.11785 0,-1.27763 -0.16343,-1.27763 -0.65409,-0.63877 -1.30814,-0.23963 -0.89972,-0.63875 -0.7356,-0.39925 -0.81769,-1.51717 0.0818,-0.79851 0.0819,-1.27764 0.24515,-1.99625 -0.0816,-1.27759 -0.40878,-1.11794 -0.40886,-0.79848 -0.65417,-1.27761 -0.49046,-0.87837 0.24523,-0.95818 0.40878,-1.35748 -0.65401,-1.43733 -0.65425,-1.35745 0,-1.03807 -0.60815,-1.15523 z"
         id="path4817"
         sodipodi:nodetypes="ccccccccccccccccccccccccccccccccccccccccccccccccccccccccccccccccccccccccccccccccccccccccccccccccccccccccccccccccccccccccccccccccccccccccccccccccccccccccccccccccccccccccccccccccccccccccccccccccccccccccccccccccccccccccccccccccccccccccccccccccccccccccccccccccccccccccccccccccccccccccccccccccccccccccccccccccccccccccccccccccccccccccccccccccccccccccccccccccccccc"
         inkscape:export-xdpi="99"
         inkscape:export-ydpi="99" />
    </g>
  </g>
  <g
     inkscape:groupmode="layer"
     id="layer7"
     inkscape:label="text"
     sodipodi:insensitive="true"
     transform="translate(0,-962.36218)">
    <g
       transform="translate(-462.31564,965.62568)"
       style="font-size:28px;font-style:normal;font-variant:normal;font-weight:normal;font-stretch:normal;text-align:start;line-height:125%;letter-spacing:0px;word-spacing:0px;writing-mode:lr-tb;text-anchor:start;opacity:0.6;fill:#000000;fill-opacity:1;stroke:none;font-family:Gillius ADF;-inkscape-font-specification:Gillius ADF"
       id="text4956">
      <path
         d="m 494.4218,67.625434 c 0,-2.267998 -1.176,-4.256 -3.276,-4.9 l 0,-0.28 c 1.764,-0.447999 2.52,-2.156002 2.52,-4.06 -0.14,-3.527996 -2.52,-4.732 -5.656,-4.732 l -6.188,0 0,19.376 6.468,0 c 3.612,0 6.132,-1.540004 6.132,-5.404 m -2.688,-8.96 c -0.056,2.183998 -1.708,3.136 -3.92,3.136 l -3.864,0 0,-6.216 3.864,0 c 2.156,0.056 3.92,0.728003 3.92,3.08 m 0.588,8.68 c 0,2.743997 -1.568,3.752 -4.2,3.752 l -4.172,0 0,-7.42 4.172,0 c 2.632,0 4.2,0.868003 4.2,3.668"
         id="path7367"
         inkscape:connector-curvature="0" />
      <path
         d="m 508.35311,66.701434 c 0,-0.056 0,-0.14 0,-0.196 0,-3.667996 -1.484,-6.328 -5.656,-6.412 -3.75199,0 -5.824,3.248004 -5.824,6.748 0,3.807996 2.32401,6.524 6.188,6.524 1.736,0 3.33201,-0.364 4.844,-0.952 l 0,-2.1 c -1.98799,0.979999 -2.296,1.176 -4.704,1.176 -2.60399,0 -4.172,-1.568003 -4.172,-4.564 0,-0.056 0,-0.14 0,-0.224 l 9.324,0 m -2.044,-1.708 -7.196,0 c 0.252,-1.679998 1.45601,-3.108 3.584,-3.108 2.184,0 3.612,1.372002 3.612,3.108"
         id="path7369"
         inkscape:connector-curvature="0" />
      <path
         d="m 513.17174,53.653434 -2.072,0 0,19.376 2.072,0 0,-19.376"
         id="path7371"
         inkscape:connector-curvature="0" />
      <path
         d="m 520.79386,72.721434 c 2.38,0 4.004,1.120002 4.004,2.66 0,1.539999 -1.624,2.632 -4.004,2.632 -2.37999,0 -3.696,-1.092001 -3.696,-2.632 0,-1.539998 1.31601,-2.66 3.696,-2.66 m 0.028,-1.792 c -0.224,0 -0.448,0 -0.7,0.028 -1.344,0 -2.492,-0.784 -2.492,-1.316 0,-0.587999 0.7,-0.812 1.232,-0.812 0.056,0 0.112,0 0.168,0 0.448,0.392 1.792,0.504 2.156,0.504 2.408,0 4.368,-2.044002 4.368,-4.592 0,-1.007999 -0.364,-1.960001 -0.924,-2.744 l 2.044,0 0,-1.568 -3.556,0 c -0.56,-0.168 -1.344,-0.28 -1.792,-0.28 -2.40799,0.028 -4.424,2.072003 -4.508,4.592 0,1.203999 0.42,2.324001 1.204,3.108 -0.896,0.168 -1.932,0.784001 -1.932,1.96 0,0.783999 0.504,1.484001 1.512,1.904 -1.62399,0.811999 -2.576,2.184002 -2.576,3.64 0,2.267998 2.29601,4.396 5.796,4.396 3.5,0 6.356,-2.100002 6.356,-4.368 0,-2.911997 -3.416,-4.452 -6.356,-4.452 m 0.364,-8.988 c 1.512,0 2.716,1.232002 2.716,2.744 0,1.511999 -1.204,2.744 -2.716,2.744 -1.51199,0 -2.716,-1.232001 -2.716,-2.744 0,-1.511998 1.20401,-2.744 2.716,-2.744"
         id="path7373"
         inkscape:connector-curvature="0" />
      <path
         d="m 532.10149,73.029434 0,-12.628 -2.1,0 0,12.628 2.1,0 m -1.036,-19.376 c -0.672,0 -1.232,0.644001 -1.232,1.316 0,0.672 0.56,1.316 1.232,1.316 0.672,0 1.232,-0.644 1.232,-1.316 0,-0.671999 -0.56,-1.316 -1.232,-1.316"
         id="path7375"
         inkscape:connector-curvature="0" />
      <path
         d="m 545.67843,73.029434 0,-7.196 c 0,-3.639996 -1.54001,-5.74 -5.32,-5.74 -1.372,0 -3.05201,0.448001 -4.256,0.868 l 0,2.072 c 1.25999,-0.727999 2.324,-1.148 4.06,-1.148 2.01599,0.056 3.584,1.036002 3.584,3.164 l -2.912,0 c -2.968,0 -5.6,1.008003 -5.6,4.284 0.056,2.575998 1.54,4.032 4.116,4.032 1.79199,0 3.416,-0.728001 4.396,-1.988 l 0,1.652 1.932,0 m -1.932,-5.88 c 0,2.463998 -1.14801,4.452 -3.808,4.452 -1.54,0 -2.8,-0.728001 -2.8,-2.408 0,-2.435997 2.352,-2.436 4.508,-2.436 l 2.1,0 0,0.392"
         id="path7377"
         inkscape:connector-curvature="0" />
      <path
         d="m 560.25286,73.029434 0,-7.616 c 0,-2.995997 -1.288,-5.32 -4.508,-5.32 -1.65199,0 -3.304,0.616002 -4.312,2.016 l 0,-1.736 -2.072,0 0,12.656 2.072,0 0,-7.14 c 0.056,-2.407997 1.56801,-3.948 3.808,-3.948 2.212,0 2.968,1.288002 2.968,3.528 l 0,7.56 2.044,0"
         id="path7379"
         inkscape:connector-curvature="0" />
      <path
         d="m 584.9843,67.625434 c 0,-2.267998 -1.176,-4.256 -3.276,-4.9 l 0,-0.28 c 1.764,-0.447999 2.52,-2.156002 2.52,-4.06 -0.14,-3.527996 -2.52,-4.732 -5.656,-4.732 l -6.188,0 0,19.376 6.468,0 c 3.612,0 6.132,-1.540004 6.132,-5.404 m -2.688,-8.96 c -0.056,2.183998 -1.708,3.136 -3.92,3.136 l -3.864,0 0,-6.216 3.864,0 c 2.156,0.056 3.92,0.728003 3.92,3.08 m 0.588,8.68 c 0,2.743997 -1.568,3.752 -4.2,3.752 l -4.172,0 0,-7.42 4.172,0 c 2.632,0 4.2,0.868003 4.2,3.668"
         id="path7381"
         inkscape:connector-curvature="0" />
      <path
         d="m 595.10761,62.949434 0.644,-2.044 c -0.308,-0.335999 -1.68,-0.7 -2.604,-0.7 -1.316,0.056 -2.38,0.728001 -2.968,1.876 l 0,-1.708 -2.1,0 0,12.656 2.1,0 0,-6.692 c -0.028,-1.819998 0.92401,-4.34 2.94,-4.34 0.056,0 0.084,0 0.14,0 0.672,0 1.204,0.420001 1.848,0.952"
         id="path7383"
         inkscape:connector-curvature="0" />
      <path
         d="m 607.42061,73.029434 0,-7.196 c 0,-3.639996 -1.54,-5.74 -5.32,-5.74 -1.372,0 -3.052,0.448001 -4.256,0.868 l 0,2.072 c 1.26,-0.727999 2.32401,-1.148 4.06,-1.148 2.016,0.056 3.584,1.036002 3.584,3.164 l -2.912,0 c -2.96799,0 -5.6,1.008003 -5.6,4.284 0.056,2.575998 1.54001,4.032 4.116,4.032 1.792,0 3.416,-0.728001 4.396,-1.988 l 0,1.652 1.932,0 m -1.932,-5.88 c 0,2.463998 -1.148,4.452 -3.808,4.452 -1.53999,0 -2.8,-0.728001 -2.8,-2.408 0,-2.435997 2.35201,-2.436 4.508,-2.436 l 2.1,0 0,0.392"
         id="path7385"
         inkscape:connector-curvature="0" />
      <path
         d="m 613.20305,73.029434 0,-12.628 -2.1,0 0,12.628 2.1,0 m -1.036,-19.376 c -0.672,0 -1.232,0.644001 -1.232,1.316 0,0.672 0.56,1.316 1.232,1.316 0.672,0 1.232,-0.644 1.232,-1.316 0,-0.671999 -0.56,-1.316 -1.232,-1.316"
         id="path7387"
         inkscape:connector-curvature="0" />
      <path
         d="m 627.95599,73.029434 0,-7.616 c 0,-2.995997 -1.288,-5.32 -4.508,-5.32 -1.652,0 -3.304,0.616002 -4.312,2.016 l 0,-1.736 -2.072,0 0,12.656 2.072,0 0,-7.14 c 0.056,-2.407997 1.568,-3.948 3.808,-3.948 2.212,0 2.968,1.288002 2.968,3.528 l 0,7.56 2.044,0"
         id="path7389"
         inkscape:connector-curvature="0" />
      <path
         d="m 653.61143,71.601434 0,-2.548 c -1.54,1.707998 -3.10801,2.464 -5.488,2.464 -4.844,0 -6.72,-3.556004 -6.72,-8.12 0.084,-4.535995 1.792,-8.176 6.72,-8.176 2.40799,0 4.004,0.812002 5.488,2.52 l 0,-2.632 c -1.624,-1.147999 -3.52801,-1.792 -5.628,-1.792 -5.936,0 -8.652,4.480006 -8.652,10.08 0,5.599995 2.772,10.024 8.652,10.024 1.95999,0 4.144,-0.672001 5.628,-1.82"
         id="path7391"
         inkscape:connector-curvature="0" />
      <path
         d="m 667.69499,66.729434 c 0,-3.219997 -1.73601,-6.636 -5.964,-6.636 -3.808,0 -5.936,2.912004 -5.964,6.636 0.028,3.443997 2.268,6.58 5.964,6.636 3.80799,-0.056 5.936,-3.080003 5.964,-6.636 m -2.072,0 c -0.028,2.491998 -1.54,4.732 -3.892,4.732 -3.136,-0.056 -3.836,-2.884002 -3.836,-4.816 0,-2.519997 1.232,-4.648 3.836,-4.676 2.464,0.028 3.864,2.324003 3.892,4.76"
         id="path7393"
         inkscape:connector-curvature="0" />
      <path
         d="m 681.79386,73.029434 0,-12.628 -2.156,0 0,7.14 c 0,2.379998 -1.204,3.976 -3.752,3.976 -2.23999,0 -2.996,-1.372002 -2.996,-3.528 l 0,-7.588 -2.044,0 0,7.644 c 0,2.967997 1.40001,5.32 4.564,5.32 1.652,0 3.304,-0.896001 4.228,-1.988 l 0,1.652 2.156,0"
         id="path7395"
         inkscape:connector-curvature="0" />
      <path
         d="m 696.53411,73.029434 0,-7.616 c 0,-2.995997 -1.288,-5.32 -4.508,-5.32 -1.65199,0 -3.304,0.616002 -4.312,2.016 l 0,-1.736 -2.072,0 0,12.656 2.072,0 0,-7.14 c 0.056,-2.407997 1.56801,-3.948 3.808,-3.948 2.212,0 2.968,1.288002 2.968,3.528 l 0,7.56 2.044,0"
         id="path7397"
         inkscape:connector-curvature="0" />
      <path
         d="m 709.95968,72.581434 0,-2.072 c -1.372,0.7 -1.96001,1.064 -3.724,1.064 -3.052,-0.056 -4.536,-1.820003 -4.536,-4.844 0,-2.939997 1.54,-4.844 4.536,-4.844 1.70799,0.084 2.296,0.364001 3.724,1.064 l 0,-2.1 c -1.148,-0.391999 -2.38001,-0.756 -3.836,-0.756 -4.116,0 -6.524,2.604004 -6.524,6.636 0.056,3.947996 2.324,6.636 6.384,6.636 1.42799,0 2.884,-0.392 3.976,-0.784"
         id="path7399"
         inkscape:connector-curvature="0" />
      <path
         d="m 714.97649,73.029434 0,-12.628 -2.1,0 0,12.628 2.1,0 m -1.036,-19.376 c -0.672,0 -1.232,0.644001 -1.232,1.316 0,0.672 0.56,1.316 1.232,1.316 0.672,0 1.232,-0.644 1.232,-1.316 0,-0.671999 -0.56,-1.316 -1.232,-1.316"
         id="path7401"
         inkscape:connector-curvature="0" />
      <path
         d="m 720.60143,53.653434 -2.072,0 0,19.376 2.072,0 0,-19.376"
         id="path7403"
         inkscape:connector-curvature="0" />
    </g>
  </g>
</svg>
